HIERARCHY
ROOT Hips
{
	OFFSET	0.00	0.00	0.00
	CHANNELS 6 Xposition Yposition Zposition Zrotation Xrotation Yrotation
	JOINT LeftUpLeg
	{
		OFFSET	 0.126116	-0.014019	-0.065224
		CHANNELS 3 Zrotation Xrotation Yrotation
		JOINT LeftLeg
		{
			OFFSET	 0.000000	 0.000000	 0.569914
			CHANNELS 3 Zrotation Xrotation Yrotation
			JOINT LeftFoot
			{
				OFFSET	 0.000000	 0.000000	 0.544423
				CHANNELS 3 Zrotation Xrotation Yrotation
				JOINT LeftToeBase
				{
					OFFSET	 0.000000	 0.000000	 0.207117
					CHANNELS 3 Zrotation Xrotation Yrotation
					End Site
					{
						OFFSET	 0.000000	 0.000000	 0.207117
					}
				}
			}
		}
	}
	JOINT RightUpLeg
	{
		OFFSET	-0.124023	-0.008373	-0.065224
		CHANNELS 3 Zrotation Xrotation Yrotation
		JOINT RightLeg
		{
			OFFSET	 0.000000	 0.000000	 0.570047
			CHANNELS 3 Zrotation Xrotation Yrotation
			JOINT RightFoot
			{
				OFFSET	 0.000000	 0.000000	 0.544354
				CHANNELS 3 Zrotation Xrotation Yrotation
				JOINT RightToeBase
				{
					OFFSET	 0.000000	 0.000000	 0.207540
					CHANNELS 3 Zrotation Xrotation Yrotation
					End Site
					{
						OFFSET	 0.000000	 0.000000	 0.207540
					}
				}
			}
		}
	}
	JOINT Spine
	{
		OFFSET	 0.000184	-0.007763	 0.117403
		CHANNELS 3 Zrotation Xrotation Yrotation
		JOINT Spine1
		{
			OFFSET	 0.000000	 0.000000	 0.137269
			CHANNELS 3 Zrotation Xrotation Yrotation
			JOINT Spine2
			{
				OFFSET	 0.000000	 0.000000	 0.156879
				CHANNELS 3 Zrotation Xrotation Yrotation
				JOINT LeftShoulder
				{
					OFFSET	 0.080501	-0.002496	 0.160144
					CHANNELS 3 Zrotation Xrotation Yrotation
					JOINT LeftArm
					{
						OFFSET	 0.000000	 0.000000	 0.164363
						CHANNELS 3 Zrotation Xrotation Yrotation
						JOINT LeftForeArm
						{
							OFFSET	 0.000000	 0.000000	 0.364576
							CHANNELS 3 Zrotation Xrotation Yrotation
							JOINT LeftHand
							{
								OFFSET	 0.000000	 0.000000	 0.360812
								CHANNELS 3 Zrotation Xrotation Yrotation
								JOINT LeftHandIndex1
								{
									OFFSET	 0.000000	 0.000000	 0.086006
									CHANNELS 3 Zrotation Xrotation Yrotation
									JOINT LeftHandIndex2
									{
										OFFSET	 0.000000	 0.000000	 0.047236
										CHANNELS 3 Zrotation Xrotation Yrotation
										JOINT LeftHandIndex3
										{
											OFFSET	-0.004284	-0.000551	 0.038166
											CHANNELS 3 Zrotation Xrotation Yrotation
											End Site
											{
												OFFSET	-0.004284	-0.000551	 0.038166
											}
										}
									}
								}
							}
						}
					}
				}
				JOINT Neck
				{
					OFFSET	 0.000000	 0.000000	 0.176489
					CHANNELS 3 Zrotation Xrotation Yrotation
					JOINT Head
					{
						OFFSET	 0.000000	-0.001747	 0.077940
						CHANNELS 3 Zrotation Xrotation Yrotation
						End Site
						{
							OFFSET	 0.000000	-0.001747	 0.077940
						}
					}
				}
				JOINT RightShoulder
				{
					OFFSET	-0.080363	 0.000306	 0.159706
					CHANNELS 3 Zrotation Xrotation Yrotation
					JOINT RightArm
					{
						OFFSET	 0.000000	 0.000000	 0.164196
						CHANNELS 3 Zrotation Xrotation Yrotation
						JOINT RightForeArm
						{
							OFFSET	 0.000000	 0.000000	 0.365611
							CHANNELS 3 Zrotation Xrotation Yrotation
							JOINT RightHand
							{
								OFFSET	 0.000000	 0.000000	 0.360648
								CHANNELS 3 Zrotation Xrotation Yrotation
								JOINT RightHandIndex1
								{
									OFFSET	 0.000000	 0.000000	 0.069977
									CHANNELS 3 Zrotation Xrotation Yrotation
									JOINT RightHandIndex2
									{
										OFFSET	 0.000000	 0.000000	 0.052305
										CHANNELS 3 Zrotation Xrotation Yrotation
										JOINT RightHandIndex3
										{
											OFFSET	 0.009002	-0.000782	 0.042196
											CHANNELS 3 Zrotation Xrotation Yrotation
											End Site
											{
												OFFSET	 0.009002	-0.000782	 0.042196
											}
										}
									}
								}
							}
						}
					}
				}
			}
		}
	}
}
MOTION
Frames:    8
Frame Time: 0.03333334
 0.008217	-1.778067	 1.299358	-1.102151	 17.086320	 3.758717	 3.408515	-34.952360	 175.216900	-0.995620	-43.208920	-0.173317	-0.635699	 80.635820	 0.604291	-2.350006	 34.472250	-0.136254	-0.717768	-36.210780	-179.573900	-3.076955	-43.356860	-1.006865	-1.592129	 80.731360	 0.416025	 2.406822	 19.659030	-0.179865	-6.515752	 15.714410	 2.910091	-10.996250	 3.435029	-1.511468	-13.885020	-2.099889	-1.176917	-125.835200	 89.282630	-141.723900	 53.485690	 65.425950	-61.021430	-10.694450	-1.357004	-22.072390	-1.437276	 2.673717	-5.377581	-5.768109	-12.409820	-1.556027	-5.213516	-0.193813	 3.566525	-1.378229	 35.397820	-2.634230	 0.825021	 0.206627	-3.831718	-3.420555	-6.940248	 0.643949	 93.693720	 85.930570	 171.997700	-62.324100	 74.028770	 72.354320	-1.822125	-15.648080	 32.650360	-24.619530	 1.620594	 9.570925	-10.084410	-10.362490	-39.058190	 5.070815	-0.697434	-9.399699	-2.350882	 35.473990	 5.254307
 0.009485	-1.784759	 1.300085	-0.997065	 17.399630	 3.762701	 3.538159	-34.857170	 175.395500	-1.369181	-43.074640	-0.355977	-0.756885	 80.936970	 0.500986	-2.352796	 34.100180	-0.127416	-0.739656	-36.034760	-179.497900	-2.966536	-43.050250	-0.947322	-1.603528	 81.224330	 0.522137	 2.406661	 19.855450	-0.175972	-6.511429	 15.610370	 2.813960	-11.004280	 3.308567	-1.555054	-13.903580	-2.270092	-1.199120	-125.618700	 89.279640	-141.946000	 55.487080	 66.073100	-61.671940	-10.260870	-1.425661	-21.271440	-1.266160	 2.062129	-5.374324	-5.642696	-12.200060	-1.283389	-5.213516	-0.193813	 3.566525	-1.378229	 35.397820	-2.634230	 0.804390	 0.120237	-3.801989	-3.426841	-7.195645	 0.757418	 93.698570	 85.949620	 172.016700	-61.182790	 75.025710	 70.522720	-2.552257	-14.793400	 29.437920	-25.251970	 1.032261	 9.569027	-9.874250	-9.937030	-38.873780	 5.070815	-0.697434	-9.399699	-2.350882	 35.473990	 5.254307
 0.010903	-1.792585	 1.300503	-0.901855	 17.753050	 3.779959	 3.618275	-34.858800	 175.531000	-1.744383	-43.078170	-0.569145	-0.883473	 81.311490	 0.369680	-2.353823	 33.960240	-0.124115	-0.762992	-35.872980	-179.421300	-2.800737	-42.776830	-0.851265	-1.594946	 81.847200	 0.657412	 2.406246	 20.286650	-0.167410	-6.468533	 15.474840	 2.689638	-10.987220	 3.170696	-1.620657	-13.934220	-2.455252	-1.224265	-125.023400	 89.266720	-142.527500	 57.794920	 66.738580	-62.463280	-9.690706	-1.508069	-20.401320	-1.053766	 1.231653	-5.370620	-5.465349	-12.007100	-0.887900	-5.213516	-0.193813	 3.566525	-1.378229	 35.397820	-2.634230	 0.771881	 0.005344	-3.725639	-3.461335	-7.471003	 0.794315	 93.691020	 85.970080	 172.063200	-58.704010	 76.362720	 67.017620	-3.273333	-13.900920	 26.123720	-26.102500	 0.232928	 9.571191	-9.607731	-9.405735	-38.630690	 5.070815	-0.697434	-9.399699	-2.350882	 35.473990	 5.254307
 0.011736	-1.797696	 1.300599	-0.875083	 17.991760	 3.792849	 3.604477	-34.954910	 175.562000	-1.907680	-43.155330	-0.690305	-0.953581	 81.567740	 0.295023	-2.352658	 34.119100	-0.127871	-0.772057	-35.768880	-179.398100	-2.674882	-42.628710	-0.772671	-1.573311	 82.253230	 0.747573	 2.405830	 20.666400	-0.159843	-6.415195	 15.366320	 2.621478	-10.960900	 3.083902	-1.662374	-13.960480	-2.567212	-1.240208	-124.309500	 89.250880	-143.221300	 59.292610	 67.130870	-62.996510	-9.260838	-1.571179	-19.851010	-0.884960	 0.594751	-5.368265	-5.302289	-11.860720	-0.520151	-5.213516	-0.193813	 3.566525	-1.378229	 35.397820	-2.634230	 0.746246	-0.085521	-3.655230	-3.503291	-7.643325	 0.736140	 93.676410	 85.983510	 172.113100	-56.297910	 77.264840	 63.818470	-3.698313	-13.378210	 24.224720	-26.685740	-0.391318	 9.560635	-9.424884	-9.038033	-38.463760	 5.070815	-0.697434	-9.399699	-2.350882	 35.473990	 5.254307
 0.012647	-1.803912	 1.300650	-0.901816	 18.250720	 3.814306	 3.576077	-34.964810	 175.597600	-2.022409	-43.302750	-0.791691	-1.016318	 81.868170	 0.237043	-2.349815	 34.497540	-0.136852	-0.758865	-35.620750	-179.432000	-2.525762	-42.471210	-0.664988	-1.529756	 82.675250	 0.849566	 2.405326	 21.067210	-0.151838	-6.326420	 15.250010	 2.567182	-10.904290	 2.968878	-1.696392	-13.978880	-2.705862	-1.258739	-123.013900	 89.218900	-144.482500	 61.012430	 67.560970	-63.607120	-8.706923	-1.654496	-19.224370	-0.655222	-0.265055	-5.365901	-5.026121	-11.590850	 0.105873	-5.213516	-0.193813	 3.566525	-1.378229	 35.397820	-2.634230	 0.731281	-0.215088	-3.561849	-3.552829	-7.858277	 0.620902	 93.653320	 86.002040	 172.187400	-52.613850	 78.287970	 59.140740	-4.118113	-12.875920	 22.369180	-27.358580	-1.236739	 9.546599	-9.212667	-8.599031	-38.276120	 5.070815	-0.697434	-9.399699	-2.350882	 35.473990	 5.254307
 0.013508	-1.809625	 1.300678	-0.990728	 18.462760	 3.840103	 3.555015	-34.978650	 175.625500	-2.067105	-43.466080	-0.841652	-1.051823	 82.125250	 0.212540	-2.346149	 34.969610	-0.148155	-0.745777	-35.451020	-179.464700	-2.392365	-42.341580	-0.568023	-1.482193	 82.979970	 0.929094	 2.404971	 21.324600	-0.146686	-6.219928	 15.151510	 2.527698	-10.824570	 2.839292	-1.696179	-13.973890	-2.853389	-1.276236	-121.310400	 89.174100	-146.145300	 62.487740	 67.950290	-64.101630	-8.208605	-1.731453	-18.676680	-0.439666	-1.168499	-5.364621	-4.692225	-11.277810	 0.871057	-5.213516	-0.193813	 3.566525	-1.378229	 35.397820	-2.634230	 0.745735	-0.358266	-3.481232	-3.589320	-8.066843	 0.547873	 93.678340	 86.051710	 172.210900	-48.491810	 79.127640	 54.106910	-4.425362	-12.477650	 20.945540	-27.908240	-2.127295	 9.534985	-9.036015	-8.210936	-38.133850	 5.070815	-0.697434	-9.399699	-2.350882	 35.473990	 5.254307
 0.014300	-1.815027	 1.300775	-1.128874	 18.649550	 3.876673	 3.544400	-34.962760	 175.631900	-2.089293	-43.611170	-0.869695	-1.077098	 82.330310	 0.204161	-2.342383	 35.438400	-0.159469	-0.735974	-35.289970	-179.505600	-2.302580	-42.253560	-0.501864	-1.449346	 83.187870	 0.983365	 2.404791	 21.449810	-0.144177	-6.107375	 15.057290	 2.478074	-10.733270	 2.700474	-1.664852	-13.950780	-3.004769	-1.292491	-119.197100	 89.114200	-148.222600	 63.714900	 68.346040	-64.447400	-7.830598	-1.791046	-18.192450	-0.276966	-2.131018	-5.365010	-4.379422	-10.971470	 1.595149	-5.213516	-0.193813	 3.566525	-1.378229	 35.397820	-2.634230	 0.778504	-0.472921	-3.404450	-3.611606	-8.281240	 0.537258	 93.757740	 86.135030	 172.176600	-44.166420	 79.783830	 48.967460	-4.624609	-12.127410	 19.813960	-28.301830	-3.077307	 9.527390	-8.902315	-7.884021	-38.048500	 5.070815	-0.697434	-9.399699	-2.350882	 35.473990	 5.254307
 0.015076	-1.820101	 1.301008	-1.291714	 18.830710	 3.923008	 3.549590	-34.901150	 175.656800	-2.132690	-43.702000	-0.902345	-1.104749	 82.469670	 0.194169	-2.338945	 35.851410	-0.169526	-0.730347	-35.267970	-179.570300	-2.301763	-42.196110	-0.497907	-1.455072	 83.308330	 1.001344	 2.404672	 21.523950	-0.142681	-6.009174	 14.956190	 2.399290	-10.646580	 2.561508	-1.607325	-13.911540	-3.150789	-1.306509	-116.662600	 89.036120	-150.743200	 64.729680	 68.747640	-64.656810	-7.592220	-1.823311	-17.762230	-0.206482	-3.173928	-5.367923	-4.160698	-10.725670	 2.105584	-5.213516	-0.193813	 3.566525	-1.378229	 35.397820	-2.634230	 0.821987	-0.530117	-3.313227	-3.618344	-8.504582	 0.571974	 93.884380	 86.244130	 172.092100	-39.767690	 80.268680	 43.816460	-4.693113	-11.805130	 18.933590	-28.490990	-4.107402	 9.525116	-8.802126	-7.652054	-37.974830	 5.070815	-0.697434	-9.399699	-2.350882	 35.473990	 5.254307
